#N canvas 1278 364 613 538 10;
#X obj 17 136 soundfiler;
#N canvas 0 22 450 300 (subpatch) 0;
#X array mySound 526682 float 2;
#X coords 0 1 526682 -1 200 140 1;
#X restore 13 289 graph;
#X obj 372 397 bng 15 250 50 0 empty empty empty 17 7 0 10 -262144
-1 -1;
#X obj 312 449 hip~ 5;
#X obj 312 486 dac~;
#X text 356 451 high pass filter;
#X floatatom 17 192 15 0 0 0 - - -;
#X obj 20 443 tgl 15 0 empty empty empty 17 7 0 10 -262144 -1 -1 0
1;
#X msg 20 470 \; pd dsp \$1;
#X text 93 469 sound on/off;
#X msg 17 111 read dream.wav mySound;
#X obj 312 423 tabplay~ mySound;
#X text 395 396 bang plays the entire sound;
#X text 438 367 start duration;
#X msg 362 367 5000 20000;
#X obj 312 220 random 526682;
#X obj 312 162 bng 15 250 50 0 empty empty empty 17 7 0 10 -262144
-1 -1;
#X obj 312 136 metro 250;
#X obj 312 103 tgl 15 0 empty empty empty 17 7 0 10 -262144 -1 -1 0
1;
#X obj 423 102 r soundDuration;
#X msg 312 341 \$1 10000;
#X msg 423 158 303;
#X obj 423 130 prepend set;
#X obj 120 192 value soundFileLength;
#X obj 423 240 + 0;
#X obj 423 187 t a b;
#X obj 457 210 value fileLocation;
#X obj 109 239 value fileLocation;
#X msg 109 214 0;
#X obj 312 286 expr if($f1 < $f2 \, $f1 \, 0);
#X obj 109 164 t b b a;
#X obj 327 313 value fileLocation;
#X obj 109 266 print fileLoc;
#X obj 64 234 bng 15 250 50 0 empty empty empty 17 7 0 10 -262144 -1
-1;
#X text 133 14 slowly play through the audio file \; in small snippets
;
#X text 321 63 requires receive_OSC_ints.pd;
#X connect 0 0 6 0;
#X connect 0 0 30 0;
#X connect 2 0 11 0;
#X connect 3 0 4 0;
#X connect 3 0 4 1;
#X connect 7 0 8 0;
#X connect 10 0 0 0;
#X connect 11 0 3 0;
#X connect 14 0 11 0;
#X connect 16 0 21 0;
#X connect 17 0 16 0;
#X connect 18 0 17 0;
#X connect 19 0 17 1;
#X connect 19 0 22 0;
#X connect 20 0 11 0;
#X connect 21 0 25 0;
#X connect 22 0 21 0;
#X connect 23 0 29 1;
#X connect 24 0 29 0;
#X connect 25 0 24 0;
#X connect 25 1 26 0;
#X connect 26 0 24 1;
#X connect 27 0 32 0;
#X connect 28 0 27 0;
#X connect 29 0 31 0;
#X connect 29 0 20 0;
#X connect 30 0 28 0;
#X connect 30 1 23 0;
#X connect 30 2 23 0;
#X connect 33 0 27 0;
