#N canvas 1051 166 919 437 10;
#X declare -lib mrpeach;
#X text -73 19 Receive OSC messages;
#X obj -80 143 cnv 15 200 40 empty empty empty 20 12 0 14 -4034 -66577
0;
#X obj -71 81 unpackOSC;
#X obj 68 19 import mrpeach;
#X text 162 20 OSC library;
#X obj -71 153 routeOSC /question;
#X obj -71 46 udpreceive 1234;
#X obj -71 194 unpack s s;
#X msg -71 288 /slider/submitOption;
#X obj -71 234 prepend set;
#X text -73 306 question type;
#X msg 24 288 variable;
#X obj 24 234 prepend set;
#X text 124 267;
#X text 32 306 the question;
#X obj 190 197 unpack s s;
#X msg 190 291 BUy01opDVGFoGo7Ich0N;
#X obj 190 237 prepend set;
#X obj 327 237 prepend set;
#X obj 190 156 routeOSC /response/user;
#X msg 327 291 False;
#X text 326 309 the response;
#X text 188 309 the user ID;
#X text 266 196 String responses;
#X msg 425 291 BUy01opDVGFoGo7Ich0N;
#X obj 425 237 prepend set;
#X obj 562 237 prepend set;
#X msg 562 291 5;
#X text 561 309 the response;
#X text 423 309 the user ID;
#X text 501 196 Slider responses;
#X obj 425 197 unpack s f;
#X connect 2 0 5 0;
#X connect 2 0 19 0;
#X connect 5 0 7 0;
#X connect 6 0 2 0;
#X connect 7 0 9 0;
#X connect 7 1 12 0;
#X connect 9 0 8 0;
#X connect 12 0 11 0;
#X connect 15 0 17 0;
#X connect 15 1 18 0;
#X connect 17 0 16 0;
#X connect 18 0 20 0;
#X connect 19 0 15 0;
#X connect 19 0 31 0;
#X connect 25 0 24 0;
#X connect 26 0 27 0;
#X connect 31 0 25 0;
#X connect 31 1 26 0;
