#N canvas 535 214 649 675 10;
#X declare -lib mrpeach;
#X text -73 19 Receive OSC messages;
#X obj -80 143 cnv 15 200 40 empty empty empty 20 12 0 14 -4034 -66577
0;
#X obj -71 81 unpackOSC;
#X obj 68 19 import mrpeach;
#X text 162 20 OSC library;
#X obj -71 153 routeOSC /question;
#X obj -71 46 udpreceive 1234;
#X obj 190 156 routeOSC /response/user;
#X msg 320 291 K3uKBUvSRHLDe1G8ch0T;
#X obj 320 237 prepend set;
#X obj 457 237 prepend set;
#X msg 457 291 14;
#X text 456 309 the response;
#X text 318 309 the user ID;
#X text 266 196 Slider responses;
#X obj 190 197 unpack s f;
#X obj 190 501 coll responses;
#C restore;
#X obj 190 339 sprintf store %s %d;
#X obj 230 363 print storage;
#X msg 170 419 dump;
#X text 289 397 dump the coll \; when a response comes in;
#X obj 190 582 + 0;
#X obj 209 446 value responses_sum;
#X obj 224 552 value responses_sum;
#X obj 190 617 value responses_sum;
#X obj 332 586 value responses_sum;
#X obj 332 616 print sum;
#X obj 190 529 t a b;
#X msg 216 472 clear;
#X msg 209 419 0;
#X obj 399 617 s soundDuration;
#X obj 190 392 t b b a;
#X connect 2 0 5 0;
#X connect 2 0 7 0;
#X connect 6 0 2 0;
#X connect 7 0 15 0;
#X connect 9 0 8 0;
#X connect 10 0 11 0;
#X connect 15 0 9 0;
#X connect 15 0 17 0;
#X connect 15 1 10 0;
#X connect 15 1 17 1;
#X connect 16 0 27 0;
#X connect 16 3 25 0;
#X connect 17 0 18 0;
#X connect 17 0 31 0;
#X connect 19 0 16 0;
#X connect 21 0 24 0;
#X connect 23 0 21 1;
#X connect 25 0 26 0;
#X connect 25 0 30 0;
#X connect 27 0 21 0;
#X connect 27 1 23 0;
#X connect 28 0 16 0;
#X connect 29 0 22 0;
#X connect 31 0 19 0;
#X connect 31 1 29 0;
#X connect 31 2 16 0;
